<svg width="37" height="23" viewBox="0 0 37 23" fill="none" xmlns="http://www.w3.org/2000/svg">
<rect width="37" height="23" fill="#F5F5F5"/>
<g filter="url(#filter0_d_0_1)">
<g clip-path="url(#clip0_0_1)">
<rect x="-1301" y="-126" width="1512" height="982" fill="white"/>
<path d="M0 3.83333C0 1.71901 1.65922 0 3.7 0H14.8H17.575H18.5H33.3C35.3408 0 37 1.71901 37 3.83333V19.1667C37 21.281 35.3408 23 33.3 23H18.5H17.575H14.8H3.7C1.65922 23 0 21.281 0 19.1667V3.83333ZM18.5 3.83333V19.1667H33.3V3.83333H18.5ZM10.308 6.70234C10.123 6.27109 9.70672 5.98958 9.25 5.98958C8.79328 5.98958 8.37703 6.27109 8.19203 6.70234L4.49203 15.3273C4.23187 15.9323 4.49781 16.6391 5.08172 16.9086C5.66563 17.1781 6.34781 16.9026 6.60797 16.2977L7.1225 15.0938H11.3775L11.892 16.2977C12.1522 16.9026 12.8344 17.1721 13.4183 16.9086C14.0022 16.6451 14.2623 15.9323 14.008 15.3273L10.308 6.70234ZM9.25 10.1344L10.3484 12.6979H8.15156L9.25 10.1344ZM25.9 5.98958C26.5359 5.98958 27.0562 6.52865 27.0562 7.1875V7.42708H29.6H30.525C31.1609 7.42708 31.6812 7.96615 31.6812 8.625C31.6812 9.28385 31.1609 9.82292 30.525 9.82292H30.4094L30.3169 10.0924C29.8023 11.5539 29.0219 12.8836 28.0275 14.0096C28.0795 14.0456 28.1316 14.0755 28.1836 14.1055L29.2763 14.7823C29.8255 15.1237 29.9989 15.8604 29.6752 16.4234C29.3514 16.9865 28.6345 17.1721 28.0911 16.8367L26.9984 16.1599C26.7383 15.9982 26.4897 15.8305 26.2411 15.6508C25.6283 16.1 24.975 16.4893 24.2755 16.8128L24.0673 16.9086C23.4834 17.1781 22.8013 16.9026 22.5411 16.2977C22.2809 15.6927 22.5469 14.9859 23.1308 14.7164L23.3389 14.6206C23.7089 14.4469 24.0673 14.2552 24.4084 14.0336L23.7031 13.3029C23.2522 12.8357 23.2522 12.075 23.7031 11.6078C24.1541 11.1406 24.8883 11.1406 25.3392 11.6078L26.1833 12.4823L26.2122 12.5122C26.9291 11.7276 27.513 10.8172 27.935 9.81693H25.9H21.7375C21.1016 9.81693 20.5813 9.27786 20.5813 8.61901C20.5813 7.96016 21.1016 7.42109 21.7375 7.42109H24.7437V7.18151C24.7437 6.52266 25.2641 5.98359 25.9 5.98359V5.98958Z" fill="black"/>
</g>
<rect x="-1300.5" y="-125.5" width="1511" height="981" stroke="black"/>
</g>
<defs>
<filter id="filter0_d_0_1" x="-1305" y="-126" width="1520" height="990" filterUnits="userSpaceOnUse" color-interpolation-filters="sRGB">
<feFlood flood-opacity="0" result="BackgroundImageFix"/>
<feColorMatrix in="SourceAlpha" type="matrix" values="0 0 0 0 0 0 0 0 0 0 0 0 0 0 0 0 0 0 127 0" result="hardAlpha"/>
<feOffset dy="4"/>
<feGaussianBlur stdDeviation="2"/>
<feComposite in2="hardAlpha" operator="out"/>
<feColorMatrix type="matrix" values="0 0 0 0 0 0 0 0 0 0 0 0 0 0 0 0 0 0 0.25 0"/>
<feBlend mode="normal" in2="BackgroundImageFix" result="effect1_dropShadow_0_1"/>
<feBlend mode="normal" in="SourceGraphic" in2="effect1_dropShadow_0_1" result="shape"/>
</filter>
<clipPath id="clip0_0_1">
<rect x="-1301" y="-126" width="1512" height="982" fill="white"/>
</clipPath>
</defs>
</svg>
