<svg width="29" height="28" viewBox="0 0 29 28" fill="none" xmlns="http://www.w3.org/2000/svg">
<rect width="29" height="28" fill="#F5F5F5"/>
<g filter="url(#filter0_d_0_1)">
<g clip-path="url(#clip0_0_1)">
<rect x="-226" y="-445" width="1512" height="982" fill="white"/>
<path d="M14.0109 6.82344C10.0359 6.82344 6.82969 10.0297 6.82969 14.0047C6.82969 17.9797 10.0359 21.1859 14.0109 21.1859C17.9859 21.1859 21.1922 17.9797 21.1922 14.0047C21.1922 10.0297 17.9859 6.82344 14.0109 6.82344ZM14.0109 18.6734C11.4422 18.6734 9.34219 16.5797 9.34219 14.0047C9.34219 11.4297 11.4359 9.33594 14.0109 9.33594C16.5859 9.33594 18.6797 11.4297 18.6797 14.0047C18.6797 16.5797 16.5797 18.6734 14.0109 18.6734ZM23.1609 6.52969C23.1609 7.46094 22.4109 8.20469 21.4859 8.20469C20.5547 8.20469 19.8109 7.45469 19.8109 6.52969C19.8109 5.60469 20.5609 4.85469 21.4859 4.85469C22.4109 4.85469 23.1609 5.60469 23.1609 6.52969ZM27.9172 8.22969C27.8109 5.98594 27.2984 3.99844 25.6547 2.36094C24.0172 0.723437 22.0297 0.210938 19.7859 0.0984375C17.4734 -0.0328125 10.5422 -0.0328125 8.22969 0.0984375C5.99219 0.204688 4.00469 0.717187 2.36094 2.35469C0.717188 3.99219 0.210938 5.97969 0.0984375 8.22344C-0.0328125 10.5359 -0.0328125 17.4672 0.0984375 19.7797C0.204688 22.0234 0.717188 24.0109 2.36094 25.6484C4.00469 27.2859 5.98594 27.7984 8.22969 27.9109C10.5422 28.0422 17.4734 28.0422 19.7859 27.9109C22.0297 27.8047 24.0172 27.2922 25.6547 25.6484C27.2922 24.0109 27.8047 22.0234 27.9172 19.7797C28.0484 17.4672 28.0484 10.5422 27.9172 8.22969ZM24.9297 22.2609C24.4422 23.4859 23.4984 24.4297 22.2672 24.9234C20.4234 25.6547 16.0484 25.4859 14.0109 25.4859C11.9734 25.4859 7.59219 25.6484 5.75469 24.9234C4.52969 24.4359 3.58594 23.4922 3.09219 22.2609C2.36094 20.4172 2.52969 16.0422 2.52969 14.0047C2.52969 11.9672 2.36719 7.58594 3.09219 5.74844C3.57969 4.52344 4.52344 3.57969 5.75469 3.08594C7.59844 2.35469 11.9734 2.52344 14.0109 2.52344C16.0484 2.52344 20.4297 2.36094 22.2672 3.08594C23.4922 3.57344 24.4359 4.51719 24.9297 5.74844C25.6609 7.59219 25.4922 11.9672 25.4922 14.0047C25.4922 16.0422 25.6609 20.4234 24.9297 22.2609Z" fill="black"/>
</g>
<rect x="-225.5" y="-444.5" width="1511" height="981" stroke="black"/>
</g>
<defs>
<filter id="filter0_d_0_1" x="-230" y="-445" width="1520" height="990" filterUnits="userSpaceOnUse" color-interpolation-filters="sRGB">
<feFlood flood-opacity="0" result="BackgroundImageFix"/>
<feColorMatrix in="SourceAlpha" type="matrix" values="0 0 0 0 0 0 0 0 0 0 0 0 0 0 0 0 0 0 127 0" result="hardAlpha"/>
<feOffset dy="4"/>
<feGaussianBlur stdDeviation="2"/>
<feComposite in2="hardAlpha" operator="out"/>
<feColorMatrix type="matrix" values="0 0 0 0 0 0 0 0 0 0 0 0 0 0 0 0 0 0 0.25 0"/>
<feBlend mode="normal" in2="BackgroundImageFix" result="effect1_dropShadow_0_1"/>
<feBlend mode="normal" in="SourceGraphic" in2="effect1_dropShadow_0_1" result="shape"/>
</filter>
<clipPath id="clip0_0_1">
<rect x="-226" y="-445" width="1512" height="982" fill="white"/>
</clipPath>
</defs>
</svg>
