<svg width="31" height="25" viewBox="0 0 31 25" fill="none" xmlns="http://www.w3.org/2000/svg">
<rect width="31" height="25" fill="#F5F5F5"/>
<g filter="url(#filter0_d_0_1)">
<g clip-path="url(#clip0_0_1)">
<rect x="-269" y="-448" width="1512" height="982" fill="white"/>
<path d="M20.6778 7.53333C21.0333 7.53333 21.3778 7.55 21.7222 7.59444C20.8 3.23889 16.1278 0 10.8167 0C4.86111 0 0 4.04444 0 9.18889C0 12.1556 1.62778 14.6056 4.32778 16.5L3.25556 19.7556L7.03333 17.8611C8.38889 18.1278 9.46667 18.4 10.8222 18.4C11.1667 18.4 11.4944 18.3833 11.8389 18.3556C11.6167 17.6389 11.4944 16.8778 11.4944 16.0889C11.4889 11.3722 15.5444 7.53333 20.6778 7.53333ZM14.8722 4.59444C15.6778 4.59444 16.2167 5.13333 16.2167 5.95C16.2167 6.75556 15.6778 7.29444 14.8722 7.29444C14.05 7.29444 13.2444 6.75556 13.2444 5.95C13.25 5.13333 14.0556 4.59444 14.8722 4.59444ZM7.29444 7.29444C6.48889 7.29444 5.66667 6.75556 5.66667 5.95C5.66667 5.12778 6.48889 4.59444 7.29444 4.59444C8.11667 4.59444 8.65 5.13333 8.65 5.95C8.65 6.76111 8.11667 7.29444 7.29444 7.29444ZM30.5556 15.9667C30.5556 11.6389 26.2278 8.11667 21.3667 8.11667C16.2167 8.11667 12.1778 11.6389 12.1778 15.9667C12.1778 20.2944 16.2222 23.8167 21.3667 23.8167C22.4389 23.8167 23.5278 23.5333 24.6222 23.2667L27.5889 24.8944L26.7667 22.1944C28.9444 20.5611 30.5556 18.4 30.5556 15.9667ZM18.3833 14.6056C17.8444 14.6056 17.3111 14.0667 17.3111 13.5167C17.3111 12.9778 17.85 12.4444 18.3833 12.4444C19.2056 12.4444 19.7389 12.9833 19.7389 13.5167C19.7389 14.0722 19.2 14.6056 18.3833 14.6056ZM24.3333 14.6056C23.7944 14.6056 23.2611 14.0667 23.2611 13.5167C23.2611 12.9778 23.8 12.4444 24.3333 12.4444C25.1389 12.4444 25.6889 12.9833 25.6889 13.5167C25.6944 14.0722 25.1389 14.6056 24.3333 14.6056Z" fill="black"/>
</g>
<rect x="-268.5" y="-447.5" width="1511" height="981" stroke="black"/>
</g>
<defs>
<filter id="filter0_d_0_1" x="-273" y="-448" width="1520" height="990" filterUnits="userSpaceOnUse" color-interpolation-filters="sRGB">
<feFlood flood-opacity="0" result="BackgroundImageFix"/>
<feColorMatrix in="SourceAlpha" type="matrix" values="0 0 0 0 0 0 0 0 0 0 0 0 0 0 0 0 0 0 127 0" result="hardAlpha"/>
<feOffset dy="4"/>
<feGaussianBlur stdDeviation="2"/>
<feComposite in2="hardAlpha" operator="out"/>
<feColorMatrix type="matrix" values="0 0 0 0 0 0 0 0 0 0 0 0 0 0 0 0 0 0 0.25 0"/>
<feBlend mode="normal" in2="BackgroundImageFix" result="effect1_dropShadow_0_1"/>
<feBlend mode="normal" in="SourceGraphic" in2="effect1_dropShadow_0_1" result="shape"/>
</filter>
<clipPath id="clip0_0_1">
<rect x="-269" y="-448" width="1512" height="982" fill="white"/>
</clipPath>
</defs>
</svg>
